<svg width="383" height="26" viewBox="0 0 383 26" fill="none" xmlns="http://www.w3.org/2000/svg">
<path d="M85.407 13.882H79.947L78.771 16.5H77.693L82.173 6.7H83.195L87.675 16.5H86.583L85.407 13.882ZM85.029 13.042L82.677 7.778L80.325 13.042H85.029ZM95.4702 11.446C96.1142 11.586 96.6089 11.866 96.9542 12.286C97.3089 12.6967 97.4862 13.2287 97.4862 13.882C97.4862 14.722 97.1735 15.3707 96.5482 15.828C95.9322 16.276 95.0175 16.5 93.8042 16.5H89.2962V6.7H93.5242C94.6162 6.7 95.4609 6.91933 96.0582 7.358C96.6649 7.79667 96.9682 8.41733 96.9682 9.22C96.9682 9.76133 96.8329 10.2233 96.5622 10.606C96.3009 10.9793 95.9369 11.2593 95.4702 11.446ZM90.3322 7.554V11.11H93.4542C94.2475 11.11 94.8589 10.9607 95.2882 10.662C95.7175 10.354 95.9322 9.91067 95.9322 9.332C95.9322 8.75333 95.7175 8.31467 95.2882 8.016C94.8589 7.708 94.2475 7.554 93.4542 7.554H90.3322ZM93.7902 15.646C94.6675 15.646 95.3302 15.4967 95.7782 15.198C96.2262 14.8993 96.4502 14.4327 96.4502 13.798C96.4502 12.5753 95.5635 11.964 93.7902 11.964H90.3322V15.646H93.7902ZM104.135 16.584C103.164 16.584 102.282 16.3693 101.489 15.94C100.705 15.5013 100.089 14.904 99.6409 14.148C99.2022 13.392 98.9829 12.5427 98.9829 11.6C98.9829 10.6573 99.2022 9.808 99.6409 9.052C100.089 8.296 100.705 7.70333 101.489 7.274C102.282 6.83533 103.164 6.616 104.135 6.616C105.106 6.616 105.978 6.83067 106.753 7.26C107.537 7.68933 108.153 8.28667 108.601 9.052C109.049 9.808 109.273 10.6573 109.273 11.6C109.273 12.5427 109.049 13.3967 108.601 14.162C108.153 14.918 107.537 15.5107 106.753 15.94C105.978 16.3693 105.106 16.584 104.135 16.584ZM104.135 15.66C104.91 15.66 105.61 15.4873 106.235 15.142C106.86 14.7873 107.35 14.302 107.705 13.686C108.06 13.0607 108.237 12.3653 108.237 11.6C108.237 10.8347 108.06 10.144 107.705 9.528C107.35 8.90267 106.86 8.41733 106.235 8.072C105.61 7.71733 104.91 7.54 104.135 7.54C103.36 7.54 102.656 7.71733 102.021 8.072C101.396 8.41733 100.901 8.90267 100.537 9.528C100.182 10.144 100.005 10.8347 100.005 11.6C100.005 12.3653 100.182 13.0607 100.537 13.686C100.901 14.302 101.396 14.7873 102.021 15.142C102.656 15.4873 103.36 15.66 104.135 15.66ZM115.543 16.584C114.274 16.584 113.284 16.22 112.575 15.492C111.866 14.764 111.511 13.7047 111.511 12.314V6.7H112.547V12.272C112.547 13.4107 112.804 14.26 113.317 14.82C113.83 15.38 114.572 15.66 115.543 15.66C116.523 15.66 117.27 15.38 117.783 14.82C118.296 14.26 118.553 13.4107 118.553 12.272V6.7H119.561V12.314C119.561 13.7047 119.206 14.764 118.497 15.492C117.797 16.22 116.812 16.584 115.543 16.584ZM124.396 7.596H120.952V6.7H128.876V7.596H125.432V16.5H124.396V7.596ZM144.373 6.7V16.5H143.379V8.66L139.529 15.254H139.039L135.189 8.702V16.5H134.195V6.7H135.049L139.305 13.966L143.519 6.7H144.373ZM154.496 15.604V16.5H147.566V6.7H154.286V7.596H148.602V11.082H153.67V11.964H148.602V15.604H154.496Z" fill="black"/>
<line x1="167" y1="10.5" x2="381" y2="10.5" stroke="#282828" stroke-width="4" stroke-linecap="round" stroke-linejoin="round"/>
<line x1="2" y1="11.5" x2="41" y2="11.5" stroke="#282828" stroke-width="4" stroke-linecap="round" stroke-linejoin="round"/>
<circle cx="57" cy="11.5" r="11" fill="#282828"/>
<circle cx="57" cy="11.5" r="3" fill="white"/>
<ellipse cx="56.5" cy="18.5" rx="6.5" ry="5" fill="white"/>
</svg>
