<svg width="383" height="25" viewBox="0 0 383 25" fill="none" xmlns="http://www.w3.org/2000/svg">
<path d="M81.6383 14.604V15.5H74.7083V5.7H81.4283V6.596H75.7443V10.082H80.8123V10.964H75.7443V14.604H81.6383ZM84.0735 5.7H88.0635C89.0995 5.7 90.0142 5.91 90.8075 6.33C91.6009 6.74067 92.2169 7.31933 92.6555 8.066C93.0942 8.80333 93.3135 9.648 93.3135 10.6C93.3135 11.552 93.0942 12.4013 92.6555 13.148C92.2169 13.8853 91.6009 14.464 90.8075 14.884C90.0142 15.2947 89.0995 15.5 88.0635 15.5H84.0735V5.7ZM88.0075 14.604C88.8662 14.604 89.6175 14.436 90.2615 14.1C90.9055 13.7547 91.4049 13.2833 91.7595 12.686C92.1142 12.0793 92.2915 11.384 92.2915 10.6C92.2915 9.816 92.1142 9.12533 91.7595 8.528C91.4049 7.92133 90.9055 7.45 90.2615 7.114C89.6175 6.76867 88.8662 6.596 88.0075 6.596H85.1095V14.604H88.0075ZM99.5879 15.584C98.3186 15.584 97.3293 15.22 96.6199 14.492C95.9106 13.764 95.5559 12.7047 95.5559 11.314V5.7H96.5919V11.272C96.5919 12.4107 96.8486 13.26 97.3619 13.82C97.8753 14.38 98.6173 14.66 99.5879 14.66C100.568 14.66 101.315 14.38 101.828 13.82C102.341 13.26 102.598 12.4107 102.598 11.272V5.7H103.606V11.314C103.606 12.7047 103.251 13.764 102.542 14.492C101.842 15.22 100.857 15.584 99.5879 15.584ZM110.984 15.584C110.013 15.584 109.136 15.3693 108.352 14.94C107.577 14.5107 106.966 13.918 106.518 13.162C106.079 12.3967 105.86 11.5427 105.86 10.6C105.86 9.65733 106.079 8.808 106.518 8.052C106.966 7.28667 107.582 6.68933 108.366 6.26C109.15 5.83067 110.027 5.616 110.998 5.616C111.726 5.616 112.398 5.73733 113.014 5.98C113.63 6.22267 114.153 6.57733 114.582 7.044L113.924 7.702C113.159 6.92733 112.193 6.54 111.026 6.54C110.251 6.54 109.547 6.71733 108.912 7.072C108.277 7.42667 107.778 7.912 107.414 8.528C107.059 9.144 106.882 9.83467 106.882 10.6C106.882 11.3653 107.059 12.056 107.414 12.672C107.778 13.288 108.277 13.7733 108.912 14.128C109.547 14.4827 110.251 14.66 111.026 14.66C112.202 14.66 113.168 14.268 113.924 13.484L114.582 14.142C114.153 14.6087 113.625 14.968 113 15.22C112.384 15.4627 111.712 15.584 110.984 15.584ZM122.69 12.882H117.23L116.054 15.5H114.976L119.456 5.7H120.478L124.958 15.5H123.866L122.69 12.882ZM122.312 12.042L119.96 6.778L117.608 12.042H122.312ZM127.991 6.596H124.547V5.7H132.471V6.596H129.027V15.5H127.991V6.596ZM134.126 5.7H135.162V15.5H134.126V5.7ZM142.635 15.584C141.664 15.584 140.782 15.3693 139.989 14.94C139.205 14.5013 138.589 13.904 138.141 13.148C137.702 12.392 137.483 11.5427 137.483 10.6C137.483 9.65733 137.702 8.808 138.141 8.052C138.589 7.296 139.205 6.70333 139.989 6.274C140.782 5.83533 141.664 5.616 142.635 5.616C143.606 5.616 144.478 5.83067 145.253 6.26C146.037 6.68933 146.653 7.28667 147.101 8.052C147.549 8.808 147.773 9.65733 147.773 10.6C147.773 11.5427 147.549 12.3967 147.101 13.162C146.653 13.918 146.037 14.5107 145.253 14.94C144.478 15.3693 143.606 15.584 142.635 15.584ZM142.635 14.66C143.41 14.66 144.11 14.4873 144.735 14.142C145.36 13.7873 145.85 13.302 146.205 12.686C146.56 12.0607 146.737 11.3653 146.737 10.6C146.737 9.83467 146.56 9.144 146.205 8.528C145.85 7.90267 145.36 7.41733 144.735 7.072C144.11 6.71733 143.41 6.54 142.635 6.54C141.86 6.54 141.156 6.71733 140.521 7.072C139.896 7.41733 139.401 7.90267 139.037 8.528C138.682 9.144 138.505 9.83467 138.505 10.6C138.505 11.3653 138.682 12.0607 139.037 12.686C139.401 13.302 139.896 13.7873 140.521 14.142C141.156 14.4873 141.86 14.66 142.635 14.66ZM158.285 5.7V15.5H157.431L151.131 7.548V15.5H150.095V5.7H150.949L157.263 13.652V5.7H158.285Z" fill="black"/>
<line x1="167" y1="9.5" x2="381" y2="9.5" stroke="#282828" stroke-width="4" stroke-linecap="round" stroke-linejoin="round"/>
<line x1="2" y1="9.5" x2="41" y2="9.5" stroke="#282828" stroke-width="4" stroke-linecap="round" stroke-linejoin="round"/>
<circle cx="57" cy="11.5" r="11" fill="#282828"/>
<path d="M51.5 15V11.5L56.5 14L61 11.5V15C60.6667 15.3333 59.3 16 56.5 16C53.7 16 52 15.3333 51.5 15Z" fill="white"/>
<path d="M56.5 6.5L50 10L56.5 13.5L62.5 10L56.5 6.5Z" fill="white"/>
<path d="M62 11L61.5 11.5V15H62V11Z" fill="white"/>
</svg>
