<svg width="383" height="25" viewBox="0 0 383 25" fill="none" xmlns="http://www.w3.org/2000/svg">
<path d="M79.0817 14.604V15.5H72.1517V5.7H78.8717V6.596H73.1877V10.082H78.2557V10.964H73.1877V14.604H79.0817ZM87.5399 15.5L84.3759 11.188L81.2259 15.5H80.0359L83.7599 10.46L80.2739 5.7H81.4639L84.4179 9.704L87.3579 5.7H88.4779L85.0059 10.432L88.7439 15.5H87.5399ZM93.9076 5.7C95.1582 5.7 96.1382 5.99867 96.8476 6.596C97.5569 7.19333 97.9116 8.01467 97.9116 9.06C97.9116 10.1053 97.5569 10.9267 96.8476 11.524C96.1382 12.112 95.1582 12.406 93.9076 12.406H91.2756V15.5H90.2396V5.7H93.9076ZM93.8796 11.496C94.8502 11.496 95.5922 11.286 96.1056 10.866C96.6189 10.4367 96.8756 9.83467 96.8756 9.06C96.8756 8.26667 96.6189 7.66 96.1056 7.24C95.5922 6.81067 94.8502 6.596 93.8796 6.596H91.2756V11.496H93.8796ZM107.082 14.604V15.5H100.152V5.7H106.872V6.596H101.188V10.082H106.256V10.964H101.188V14.604H107.082ZM116.209 15.5L113.969 12.35C113.717 12.378 113.456 12.392 113.185 12.392H110.553V15.5H109.517V5.7H113.185C114.436 5.7 115.416 5.99867 116.125 6.596C116.834 7.19333 117.189 8.01467 117.189 9.06C117.189 9.82533 116.993 10.474 116.601 11.006C116.218 11.5287 115.668 11.9067 114.949 12.14L117.343 15.5H116.209ZM113.157 11.51C114.128 11.51 114.87 11.2953 115.383 10.866C115.896 10.4367 116.153 9.83467 116.153 9.06C116.153 8.26667 115.896 7.66 115.383 7.24C114.87 6.81067 114.128 6.596 113.157 6.596H110.553V11.51H113.157ZM119.634 5.7H120.67V15.5H119.634V5.7ZM130.789 14.604V15.5H123.859V5.7H130.579V6.596H124.895V10.082H129.963V10.964H124.895V14.604H130.789ZM141.414 5.7V15.5H140.56L134.26 7.548V15.5H133.224V5.7H134.078L140.392 13.652V5.7H141.414ZM148.869 15.584C147.898 15.584 147.021 15.3693 146.237 14.94C145.462 14.5107 144.851 13.918 144.403 13.162C143.964 12.3967 143.745 11.5427 143.745 10.6C143.745 9.65733 143.964 8.808 144.403 8.052C144.851 7.28667 145.467 6.68933 146.251 6.26C147.035 5.83067 147.912 5.616 148.883 5.616C149.611 5.616 150.283 5.73733 150.899 5.98C151.515 6.22267 152.037 6.57733 152.467 7.044L151.809 7.702C151.043 6.92733 150.077 6.54 148.911 6.54C148.136 6.54 147.431 6.71733 146.797 7.072C146.162 7.42667 145.663 7.912 145.299 8.528C144.944 9.144 144.767 9.83467 144.767 10.6C144.767 11.3653 144.944 12.056 145.299 12.672C145.663 13.288 146.162 13.7733 146.797 14.128C147.431 14.4827 148.136 14.66 148.911 14.66C150.087 14.66 151.053 14.268 151.809 13.484L152.467 14.142C152.037 14.6087 151.51 14.968 150.885 15.22C150.269 15.4627 149.597 15.584 148.869 15.584ZM161.605 14.604V15.5H154.675V5.7H161.395V6.596H155.711V10.082H160.779V10.964H155.711V14.604H161.605Z" fill="black"/>
<line x1="167" y1="9.5" x2="381" y2="9.5" stroke="#282828" stroke-width="4" stroke-linecap="round" stroke-linejoin="round"/>
<line x1="2" y1="11.5" x2="41" y2="11.5" stroke="#282828" stroke-width="4" stroke-linecap="round" stroke-linejoin="round"/>
<circle cx="57" cy="10.5" r="10" fill="#282828"/>
<path d="M50 7.5C50 6.94772 50.4477 6.5 51 6.5H63C63.5523 6.5 64 6.94772 64 7.5V9.5C64 10.0523 63.5523 10.5 63 10.5H51C50.4477 10.5 50 10.0523 50 9.5V7.5Z" fill="white"/>
<path d="M50 12.5C50 11.9477 50.4477 11.5 51 11.5H63C63.5523 11.5 64 11.9477 64 12.5V14.5C64 15.0523 63.5523 15.5 63 15.5H51C50.4477 15.5 50 15.0523 50 14.5V12.5Z" fill="white"/>
<path d="M60 6.5C60 6.23736 59.9224 5.97728 59.7716 5.73463C59.6209 5.49198 59.3999 5.2715 59.1213 5.08579C58.8427 4.90007 58.512 4.75275 58.1481 4.65224C57.7841 4.55173 57.394 4.5 57 4.5C56.606 4.5 56.2159 4.55173 55.8519 4.65224C55.488 4.75275 55.1573 4.90007 54.8787 5.08579C54.6001 5.2715 54.3791 5.49198 54.2284 5.73463C54.0776 5.97728 54 6.23736 54 6.5L55.2205 6.5C55.2205 6.34421 55.2665 6.18994 55.3559 6.04601C55.4454 5.90207 55.5765 5.77129 55.7417 5.66113C55.9069 5.55097 56.1031 5.46358 56.319 5.40396C56.5349 5.34435 56.7663 5.31366 57 5.31366C57.2337 5.31366 57.4651 5.34435 57.681 5.40396C57.8969 5.46358 58.0931 5.55097 58.2583 5.66113C58.4235 5.77129 58.5546 5.90207 58.6441 6.04601C58.7335 6.18994 58.7795 6.34421 58.7795 6.5H60Z" fill="white"/>
<circle r="1" transform="matrix(1 0 0 -1 57 10.5)" fill="#282828"/>
</svg>
