<svg width="383" height="26" viewBox="0 0 383 26" fill="none" xmlns="http://www.w3.org/2000/svg">
<path d="M75.1253 6.7H76.1613V15.604H81.6493V16.5H75.1253V6.7ZM90.2994 15.604V16.5H83.3694V6.7H90.0894V7.596H84.4054V11.082H89.4734V11.964H84.4054V15.604H90.2994ZM100.925 6.7V16.5H100.071L93.7707 8.548V16.5H92.7347V6.7H93.5887L99.9027 14.652V6.7H100.925ZM111.025 11.6H112.019V15.338C111.562 15.7393 111.021 16.0473 110.395 16.262C109.77 16.4767 109.112 16.584 108.421 16.584C107.441 16.584 106.559 16.3693 105.775 15.94C104.991 15.5107 104.375 14.918 103.927 14.162C103.479 13.3967 103.255 12.5427 103.255 11.6C103.255 10.6573 103.479 9.808 103.927 9.052C104.375 8.28667 104.991 7.68933 105.775 7.26C106.559 6.83067 107.446 6.616 108.435 6.616C109.182 6.616 109.868 6.73733 110.493 6.98C111.119 7.21333 111.646 7.56333 112.075 8.03L111.431 8.688C110.657 7.92267 109.672 7.54 108.477 7.54C107.684 7.54 106.965 7.71733 106.321 8.072C105.687 8.41733 105.187 8.90267 104.823 9.528C104.459 10.144 104.277 10.8347 104.277 11.6C104.277 12.3653 104.459 13.056 104.823 13.672C105.187 14.288 105.687 14.7733 106.321 15.128C106.956 15.4827 107.67 15.66 108.463 15.66C109.471 15.66 110.325 15.408 111.025 14.904V11.6ZM118.899 16.584C117.63 16.584 116.641 16.22 115.931 15.492C115.222 14.764 114.867 13.7047 114.867 12.314V6.7H115.903V12.272C115.903 13.4107 116.16 14.26 116.673 14.82C117.187 15.38 117.929 15.66 118.899 15.66C119.879 15.66 120.626 15.38 121.139 14.82C121.653 14.26 121.909 13.4107 121.909 12.272V6.7H122.917V12.314C122.917 13.7047 122.563 14.764 121.853 15.492C121.153 16.22 120.169 16.584 118.899 16.584ZM131.98 13.882H126.52L125.344 16.5H124.266L128.746 6.7H129.768L134.248 16.5H133.156L131.98 13.882ZM131.602 13.042L129.25 7.778L126.898 13.042H131.602ZM137.125 16.584C136.565 16.584 136.047 16.4627 135.571 16.22C135.095 15.9773 134.707 15.632 134.409 15.184L135.025 14.484C135.566 15.2867 136.271 15.688 137.139 15.688C138.352 15.688 138.959 14.9693 138.959 13.532V7.596H135.375V6.7H139.981V13.49C139.981 14.5167 139.738 15.2913 139.253 15.814C138.777 16.3273 138.067 16.584 137.125 16.584ZM150.018 15.604V16.5H143.088V6.7H149.808V7.596H144.124V11.082H149.192V11.964H144.124V15.604H150.018ZM155.155 16.584C154.427 16.584 153.727 16.4673 153.055 16.234C152.393 16.0007 151.879 15.6927 151.515 15.31L151.921 14.512C152.276 14.8667 152.747 15.156 153.335 15.38C153.923 15.5947 154.53 15.702 155.155 15.702C156.033 15.702 156.691 15.5433 157.129 15.226C157.568 14.8993 157.787 14.4793 157.787 13.966C157.787 13.574 157.666 13.2613 157.423 13.028C157.19 12.7947 156.901 12.6173 156.555 12.496C156.21 12.3653 155.729 12.2253 155.113 12.076C154.376 11.8893 153.788 11.712 153.349 11.544C152.911 11.3667 152.533 11.1007 152.215 10.746C151.907 10.3913 151.753 9.91067 151.753 9.304C151.753 8.80933 151.884 8.36133 152.145 7.96C152.407 7.54933 152.808 7.22267 153.349 6.98C153.891 6.73733 154.563 6.616 155.365 6.616C155.925 6.616 156.471 6.69533 157.003 6.854C157.545 7.00333 158.011 7.21333 158.403 7.484L158.053 8.31C157.643 8.03933 157.204 7.83867 156.737 7.708C156.271 7.568 155.813 7.498 155.365 7.498C154.507 7.498 153.858 7.666 153.419 8.002C152.99 8.32867 152.775 8.75333 152.775 9.276C152.775 9.668 152.892 9.98533 153.125 10.228C153.368 10.4613 153.667 10.6433 154.021 10.774C154.385 10.8953 154.871 11.0307 155.477 11.18C156.196 11.3573 156.775 11.5347 157.213 11.712C157.661 11.88 158.039 12.1413 158.347 12.496C158.655 12.8413 158.809 13.3127 158.809 13.91C158.809 14.4047 158.674 14.8573 158.403 15.268C158.142 15.6693 157.736 15.9913 157.185 16.234C156.635 16.4673 155.958 16.584 155.155 16.584Z" fill="black"/>
<line x1="2" y1="10.5" x2="41" y2="10.5" stroke="#282828" stroke-width="4" stroke-linecap="round" stroke-linejoin="round"/>
<line x1="167" y1="10.5" x2="381" y2="10.5" stroke="#282828" stroke-width="4" stroke-linecap="round" stroke-linejoin="round"/>
<circle cx="57" cy="10.5" r="10" fill="#282828"/>
<path d="M53 16V6.5L59 7.5V17.5L53 16Z" stroke="white" stroke-width="0.5"/>
<path d="M59 16.5H61V6.5H53" stroke="white" stroke-width="0.5"/>
</svg>
